<?xml version="1.0" encoding="UTF-8"?>
<svg version="1.1" xmlns="http://www.w3.org/2000/svg" width="1440" height="1531">
<path d="M0 0 C2.76592503 0.0053589 5.53168727 0.00001697 8.29760742 -0.00634766 C24.26388616 -0.01353759 40.08261165 0.70728386 55.9597168 2.44287109 C57.14267334 2.57113281 58.32562988 2.69939453 59.54443359 2.83154297 C71.22141846 4.14866629 82.78061247 6.00180841 94.3347168 8.13037109 C95.43759033 8.33146484 95.43759033 8.33146484 96.56274414 8.53662109 C108.51312817 10.74019731 120.61340663 13.30438338 132.08862305 17.36083984 C134.85513312 18.30867025 137.65453974 19.11661894 140.4597168 19.94287109 C146.65448192 21.83451266 152.62343592 24.15784537 158.6081543 26.61474609 C163.20789794 28.50268265 167.86753209 30.22839813 172.5300293 31.95458984 C175.3347168 33.13037109 175.3347168 33.13037109 177.5769043 34.52490234 C180.03105852 35.95359553 182.27529474 36.90812173 184.9206543 37.90380859 C190.96168413 40.25969815 196.40578704 43.43339442 201.9597168 46.75537109 C202.96389648 47.34060547 203.96807617 47.92583984 205.00268555 48.52880859 C205.95014648 49.09083984 206.89760742 49.65287109 207.8737793 50.23193359 C208.73181152 50.74062988 209.58984375 51.24932617 210.47387695 51.7734375 C211.0879541 52.22122559 211.70203125 52.66901367 212.3347168 53.13037109 C212.3347168 53.79037109 212.3347168 54.45037109 212.3347168 55.13037109 C213.2215918 55.39849609 214.1084668 55.66662109 215.0222168 55.94287109 C218.1256834 57.05543459 220.64582365 58.23232887 223.3347168 60.13037109 C223.3347168 60.79037109 223.3347168 61.45037109 223.3347168 62.13037109 C224.0565918 62.37787109 224.7784668 62.62537109 225.5222168 62.88037109 C228.62750334 64.26049844 230.72658243 65.95692579 233.3347168 68.13037109 C234.60158803 69.01109786 235.87256613 69.88594137 237.1472168 70.75537109 C238.7250293 71.93099609 238.7250293 71.93099609 240.3347168 73.13037109 C240.3347168 73.79037109 240.3347168 74.45037109 240.3347168 75.13037109 C241.2009668 75.53255859 241.2009668 75.53255859 242.0847168 75.94287109 C244.39021722 77.15966298 246.35527872 78.43370989 248.3347168 80.13037109 C248.3347168 80.79037109 248.3347168 81.45037109 248.3347168 82.13037109 C248.9328418 82.23349609 249.5309668 82.33662109 250.1472168 82.44287109 C252.64729965 83.22861142 253.71006762 84.09955962 255.3347168 86.13037109 C255.3347168 86.79037109 255.3347168 87.45037109 255.3347168 88.13037109 C256.3247168 88.46037109 257.3147168 88.79037109 258.3347168 89.13037109 C258.3347168 89.79037109 258.3347168 90.45037109 258.3347168 91.13037109 C259.3247168 91.46037109 260.3147168 91.79037109 261.3347168 92.13037109 C261.3347168 92.79037109 261.3347168 93.45037109 261.3347168 94.13037109 C262.17776367 94.48615234 262.17776367 94.48615234 263.0378418 94.84912109 C265.85365721 96.41984806 267.81427096 98.34508574 270.0847168 100.63037109 C270.88393555 101.42443359 271.6831543 102.21849609 272.5065918 103.03662109 C274.3347168 105.13037109 274.3347168 105.13037109 274.3347168 107.13037109 C274.9947168 107.13037109 275.6547168 107.13037109 276.3347168 107.13037109 C276.3347168 107.79037109 276.3347168 108.45037109 276.3347168 109.13037109 C276.9947168 109.13037109 277.6547168 109.13037109 278.3347168 109.13037109 C282.3347168 113.60095933 282.3347168 113.60095933 282.3347168 116.13037109 C282.9947168 116.13037109 283.6547168 116.13037109 284.3347168 116.13037109 C286.08866251 118.13401047 287.71953379 120.14355055 289.3347168 122.25537109 C289.81803467 122.87758545 290.30135254 123.4997998 290.79931641 124.14086914 C294.73438543 129.24653315 298.49898862 134.46877626 302.16088867 139.7734375 C304.27739965 142.95887687 304.27739965 142.95887687 307.3347168 145.13037109 C308.36651236 147.11415483 309.36165009 149.11712963 310.3347168 151.13037109 C311.43739277 152.97721755 312.56430687 154.8097195 313.7097168 156.63037109 C322.69332479 171.10215476 331.52712797 185.48979511 338.3347168 201.13037109 C339.22843089 203.06884955 340.12411431 205.00642189 341.0222168 206.94287109 C342.90791736 211.10738244 344.64622752 215.3123606 346.31518555 219.56787109 C347.38381611 222.25377781 348.5134411 224.90885317 349.6472168 227.56787109 C354.28057086 238.65940789 358.32798749 250.00603518 362.2097168 261.38037109 C362.59901367 262.51990234 362.98831055 263.65943359 363.3894043 264.83349609 C364.3347168 268.13037109 364.3347168 268.13037109 364.8425293 271.98974609 C365.00495117 273.02615234 365.16737305 274.06255859 365.3347168 275.13037109 C365.9947168 275.46037109 366.6547168 275.79037109 367.3347168 276.13037109 C367.86206055 278.09912109 367.86206055 278.09912109 368.2722168 280.63037109 C368.82038409 283.99388306 369.63034893 287.10726375 370.73706055 290.32177734 C372.45373591 295.33541004 373.72286907 300.41815635 374.9597168 305.56787109 C375.38727657 307.33791766 375.81686345 309.10747618 376.2487793 310.87646484 C376.4339209 311.64659912 376.6190625 312.4167334 376.80981445 313.21020508 C377.28461566 315.19311546 377.28461566 315.19311546 378.3347168 317.13037109 C378.61418448 318.98032565 378.85686182 320.83585302 379.0847168 322.69287109 C380.00088986 329.38432772 381.28021501 335.95513038 382.6472168 342.56787109 C391.8992259 388.02607584 396.45100573 434.33665098 399.81658936 480.56057739 C399.95071178 482.39981428 400.08673064 484.23891414 400.22491455 486.07785034 C401.45211082 502.55262628 402.19769506 519.10096592 400.4597168 535.56787109 C400.36875732 536.49196777 400.27779785 537.41606445 400.18408203 538.36816406 C399.59198818 544.18897285 398.86294932 549.97189156 397.8972168 555.74365234 C397.31173802 559.26872247 396.79232077 562.79962092 396.27856445 566.33569336 C394.22132716 580.40050578 391.618062 594.23472794 388.3347168 608.06787109 C387.96092896 609.64991333 387.96092896 609.64991333 387.57958984 611.26391602 C386.11072054 617.34015315 384.3851377 623.2284839 382.3347168 629.13037109 C381.77040747 630.84810205 381.20934324 632.56690167 380.65112305 634.28662109 C380.06652388 636.06788299 379.48188814 637.84913289 378.8972168 639.63037109 C378.61040039 640.51595703 378.32358398 641.40154297 378.02807617 642.31396484 C376.12247884 648.09441823 373.88457685 653.60694775 371.3347168 659.13037109 C370.5922168 660.86287109 370.5922168 660.86287109 369.8347168 662.63037109 C369.0922168 664.36287109 369.0922168 664.36287109 368.3347168 666.13037109 C368.06651123 666.76450928 367.79830566 667.39864746 367.52197266 668.05200195 C364.82399172 674.29565249 361.67586259 680.23727855 358.3972168 686.19287109 C357.88481445 687.13453125 357.37241211 688.07619141 356.84448242 689.04638672 C354.49168541 693.34240871 352.10103294 697.61359419 349.58081055 701.81396484 C349.19465576 702.457771 348.80850098 703.10157715 348.41064453 703.76489258 C347.8780603 704.44080444 347.8780603 704.44080444 347.3347168 705.13037109 C346.6747168 705.13037109 346.0147168 705.13037109 345.3347168 705.13037109 C345.0459668 706.05849609 344.7572168 706.98662109 344.4597168 707.94287109 C343.3347168 711.13037109 343.3347168 711.13037109 341.3347168 714.13037109 C340.6747168 714.13037109 340.0147168 714.13037109 339.3347168 714.13037109 C338.6747168 715.78037109 338.0147168 717.43037109 337.3347168 719.13037109 C336.6747168 719.13037109 336.0147168 719.13037109 335.3347168 719.13037109 C335.0665918 719.70787109 334.7984668 720.28537109 334.5222168 720.88037109 C333.30542491 723.18587152 332.031378 725.15093302 330.3347168 727.13037109 C329.6747168 727.13037109 329.0147168 727.13037109 328.3347168 727.13037109 C328.08206055 727.70400391 327.8294043 728.27763672 327.5690918 728.86865234 C319.18133068 744.23736654 297.31003801 753.24114553 281.48706055 758.44677734 C255.69701274 765.92175377 228.78302106 763.96289215 203.3347168 756.13037109 C202.25577148 755.79908203 201.17682617 755.46779297 200.06518555 755.12646484 C189.41661273 751.71088488 179.95938479 746.94208899 170.2722168 741.38037109 C169.21583008 740.77837891 168.15944336 740.17638672 167.07104492 739.55615234 C164.49008702 738.08465599 161.91140009 736.60933553 159.3347168 735.13037109 C159.3347168 734.47037109 159.3347168 733.81037109 159.3347168 733.13037109 C158.65666992 732.91380859 157.97862305 732.69724609 157.2800293 732.47412109 C153.43816248 730.72133305 150.46888043 728.28573178 147.2097168 725.63037109 C145.97866224 724.63989685 144.74691625 723.65028122 143.5144043 722.66162109 C142.97541504 722.22398437 142.43642578 721.78634766 141.88110352 721.33544922 C140.41856507 720.19571291 138.87749546 719.1588902 137.3347168 718.13037109 C137.3347168 717.47037109 137.3347168 716.81037109 137.3347168 716.13037109 C136.3447168 715.80037109 135.3547168 715.47037109 134.3347168 715.13037109 C134.3347168 714.47037109 134.3347168 713.81037109 134.3347168 713.13037109 C133.3447168 712.80037109 132.3547168 712.47037109 131.3347168 712.13037109 C131.3347168 711.47037109 131.3347168 710.81037109 131.3347168 710.13037109 C130.6747168 710.13037109 130.0147168 710.13037109 129.3347168 710.13037109 C129.3347168 709.47037109 129.3347168 708.81037109 129.3347168 708.13037109 C128.3447168 707.80037109 127.3547168 707.47037109 126.3347168 707.13037109 C126.3347168 706.47037109 126.3347168 705.81037109 126.3347168 705.13037109 C125.6747168 705.13037109 125.0147168 705.13037109 124.3347168 705.13037109 C124.3347168 704.47037109 124.3347168 703.81037109 124.3347168 703.13037109 C123.6747168 703.13037109 123.0147168 703.13037109 122.3347168 703.13037109 C118.3347168 698.65978286 118.3347168 698.65978286 118.3347168 696.13037109 C117.6747168 696.13037109 117.0147168 696.13037109 116.3347168 696.13037109 C116.0047168 694.81037109 115.6747168 693.49037109 115.3347168 692.13037109 C114.6747168 692.13037109 114.0147168 692.13037109 113.3347168 692.13037109 C111.70331743 690.2044953 110.19748455 688.28710393 108.7097168 686.25537109 C108.28948242 685.69978516 107.86924805 685.14419922 107.4362793 684.57177734 C104.3347168 680.39272398 104.3347168 680.39272398 104.3347168 678.13037109 C103.6747168 678.13037109 103.0147168 678.13037109 102.3347168 678.13037109 C101.22143555 676.75683594 101.22143555 676.75683594 100.0222168 674.84130859 C99.58651367 674.14650391 99.15081055 673.45169922 98.7019043 672.73583984 C98.25073242 671.99978516 97.79956055 671.26373047 97.3347168 670.50537109 C96.88354492 669.79251953 96.43237305 669.07966797 95.9675293 668.34521484 C93.50297862 664.37130917 91.59655063 660.67584069 90.3347168 656.13037109 C89.6747168 656.13037109 89.0147168 656.13037109 88.3347168 656.13037109 C88.0047168 654.48037109 87.6747168 652.83037109 87.3347168 651.13037109 C86.6747168 651.13037109 86.0147168 651.13037109 85.3347168 651.13037109 C84.6747168 648.82037109 84.0147168 646.51037109 83.3347168 644.13037109 C82.6747168 644.13037109 82.0147168 644.13037109 81.3347168 644.13037109 C81.08979492 643.60572266 80.84487305 643.08107422 80.5925293 642.54052734 C77.31308296 635.74415752 73.54503468 629.29457789 69.63793945 622.84545898 C69.21174316 622.13510498 68.78554688 621.42475098 68.34643555 620.69287109 C67.76575317 619.73574219 67.76575317 619.73574219 67.17333984 618.75927734 C66.3347168 617.13037109 66.3347168 617.13037109 66.3347168 615.13037109 C65.6747168 615.13037109 65.0147168 615.13037109 64.3347168 615.13037109 C64.0047168 613.48037109 63.6747168 611.83037109 63.3347168 610.13037109 C62.6747168 610.13037109 62.0147168 610.13037109 61.3347168 610.13037109 C59.71362305 607.86474609 59.71362305 607.86474609 57.8972168 604.88037109 C55.39721816 600.79041756 55.39721816 600.79041756 52.61206055 596.89599609 C51.3347168 595.13037109 51.3347168 595.13037109 51.3347168 593.13037109 C50.6747168 593.13037109 50.0147168 593.13037109 49.3347168 593.13037109 C47.6081543 591.23193359 47.6081543 591.23193359 45.7097168 588.75537109 C45.07807617 587.94326172 44.44643555 587.13115234 43.7956543 586.29443359 C42.3347168 584.13037109 42.3347168 584.13037109 42.3347168 582.13037109 C41.6747168 582.13037109 41.0147168 582.13037109 40.3347168 582.13037109 C40.3347168 581.47037109 40.3347168 580.81037109 40.3347168 580.13037109 C39.6747168 580.13037109 39.0147168 580.13037109 38.3347168 580.13037109 C36.9597168 578.73193359 36.9597168 578.73193359 35.3347168 576.75537109 C24.90450906 564.53651204 12.6969396 554.03851963 -0.6652832 545.13037109 C-0.6652832 544.47037109 -0.6652832 543.81037109 -0.6652832 543.13037109 C-1.5934082 542.84162109 -2.5215332 542.55287109 -3.4777832 542.25537109 C-6.6652832 541.13037109 -6.6652832 541.13037109 -9.6652832 539.13037109 C-9.6652832 538.47037109 -9.6652832 537.81037109 -9.6652832 537.13037109 C-10.3046582 536.90349609 -10.9440332 536.67662109 -11.6027832 536.44287109 C-15.79848581 534.64471283 -19.70428876 532.39133088 -23.6652832 530.13037109 C-23.6652832 529.47037109 -23.6652832 528.81037109 -23.6652832 528.13037109 C-24.39255615 527.85273926 -25.1198291 527.57510742 -25.86914062 527.2890625 C-28.49957674 526.19903807 -30.9169927 524.97405553 -33.40356445 523.59130859 C-34.2980127 523.09727539 -35.19246094 522.60324219 -36.11401367 522.09423828 C-37.05905762 521.56991211 -38.00410156 521.04558594 -38.9777832 520.50537109 C-47.47417553 515.83089018 -56.02803395 511.34481322 -64.7355957 507.07910156 C-68.17982755 505.38574567 -71.60886537 503.66199976 -75.0402832 501.94287109 C-76.37488213 501.27613138 -77.70951623 500.60946208 -79.04418945 499.94287109 C-81.20066929 498.86491073 -83.35408906 497.78170458 -85.50512695 496.69287109 C-104.88989729 486.89330315 -125.00955047 478.80920545 -145.6652832 472.13037109 C-146.64239258 471.80294922 -147.61950195 471.47552734 -148.6262207 471.13818359 C-181.30800015 460.53631948 -214.53105754 457.43458175 -248.6652832 457.13037109 C-249.98496094 457.11425781 -251.30463867 457.09814453 -252.66430664 457.08154297 C-253.93048828 457.071875 -255.19666992 457.06220703 -256.5012207 457.05224609 C-258.20737549 457.03822754 -258.20737549 457.03822754 -259.94799805 457.02392578 C-262.63229594 456.94226915 -262.63229594 456.94226915 -264.6652832 458.13037109 C-267.29920385 458.24193023 -269.9057032 458.29450446 -272.5402832 458.29833984 C-273.73717773 458.30333244 -273.73717773 458.30333244 -274.95825195 458.3084259 C-276.65974349 458.31350119 -278.36124504 458.31583404 -280.06274414 458.31567383 C-282.59971055 458.31781573 -285.136209 458.33583697 -287.6730957 458.35498047 C-315.92983785 458.45398265 -341.1630834 453.43283307 -365.6105957 438.89599609 C-368.06966461 437.47464169 -370.42554398 436.27823454 -373.0402832 435.19287109 C-383.49021301 430.78981078 -393.37259939 424.57616333 -402.6652832 418.13037109 C-405.0146362 416.59179 -407.36592693 415.05629641 -409.7199707 413.52490234 C-411.58990334 412.18440846 -413.04831156 410.75943979 -414.6652832 409.13037109 C-417.28330456 407.04832261 -419.93068661 405.00802256 -422.58325195 402.97021484 C-423.27032227 402.36306641 -423.95739258 401.75591797 -424.6652832 401.13037109 C-424.6652832 400.47037109 -424.6652832 399.81037109 -424.6652832 399.13037109 C-425.6552832 398.80037109 -426.6452832 398.47037109 -427.6652832 398.13037109 C-427.6652832 397.47037109 -427.6652832 396.81037109 -427.6652832 396.13037109 C-428.3252832 396.13037109 -428.9852832 396.13037109 -429.6652832 396.13037109 C-429.6652832 395.47037109 -429.6652832 394.81037109 -429.6652832 394.13037109 C-430.3252832 394.13037109 -430.9852832 394.13037109 -431.6652832 394.13037109 C-435.6652832 389.65978286 -435.6652832 389.65978286 -435.6652832 387.13037109 C-436.3252832 387.13037109 -436.9852832 387.13037109 -437.6652832 387.13037109 C-439.3918457 385.01318359 -439.3918457 385.01318359 -441.2902832 382.25537109 C-442.23774414 380.89798828 -442.23774414 380.89798828 -443.2043457 379.51318359 C-444.6652832 377.13037109 -444.6652832 377.13037109 -444.6652832 375.13037109 C-445.3252832 375.13037109 -445.9852832 375.13037109 -446.6652832 375.13037109 C-446.9952832 373.48037109 -447.3252832 371.83037109 -447.6652832 370.13037109 C-448.3252832 370.13037109 -448.9852832 370.13037109 -449.6652832 370.13037109 C-452.80264403 363.82894849 -455.33163457 357.46874959 -457.4152832 350.75537109 C-457.62564209 350.07796875 -457.83600098 349.40056641 -458.05273438 348.70263672 C-467.03055162 319.06298811 -457.61080922 288.62518295 -443.7487793 262.15429688 C-440.85009045 256.73966628 -437.77602839 251.42525651 -434.6652832 246.13037109 C-434.0052832 246.13037109 -433.3452832 246.13037109 -432.6652832 246.13037109 C-432.3971582 245.40849609 -432.1290332 244.68662109 -431.8527832 243.94287109 C-430.66626959 241.13270726 -429.39042682 238.64620553 -427.6652832 236.13037109 C-427.0052832 236.13037109 -426.3452832 236.13037109 -425.6652832 236.13037109 C-425.4384082 235.44974609 -425.2115332 234.76912109 -424.9777832 234.06787109 C-423.35302174 230.4315002 -421.33725064 227.10207846 -418.6652832 224.13037109 C-418.0052832 224.13037109 -417.3452832 224.13037109 -416.6652832 224.13037109 C-416.0052832 222.48037109 -415.3452832 220.83037109 -414.6652832 219.13037109 C-414.0052832 219.13037109 -413.3452832 219.13037109 -412.6652832 219.13037109 C-412.3971582 218.55802734 -412.1290332 217.98568359 -411.8527832 217.39599609 C-410.62395684 215.05152475 -409.24006144 213.00632172 -407.6652832 210.88037109 C-407.1496582 210.17396484 -406.6340332 209.46755859 -406.1027832 208.73974609 C-405.6284082 208.20865234 -405.1540332 207.67755859 -404.6652832 207.13037109 C-404.0052832 207.13037109 -403.3452832 207.13037109 -402.6652832 207.13037109 C-402.3352832 206.14037109 -402.0052832 205.15037109 -401.6652832 204.13037109 C-401.0052832 204.13037109 -400.3452832 204.13037109 -399.6652832 204.13037109 C-399.40102539 203.55029297 -399.13676758 202.97021484 -398.86450195 202.37255859 C-395.67992574 196.41833467 -390.45111561 191.75719021 -385.2980957 187.50537109 C-382.31352379 184.99204738 -379.63392727 182.17076657 -376.9777832 179.31787109 C-375.6652832 178.13037109 -375.6652832 178.13037109 -373.6652832 178.13037109 C-373.3352832 177.14037109 -373.0052832 176.15037109 -372.6652832 175.13037109 C-372.0052832 175.13037109 -371.3452832 175.13037109 -370.6652832 175.13037109 C-370.6652832 174.47037109 -370.6652832 173.81037109 -370.6652832 173.13037109 C-370.0052832 173.13037109 -369.3452832 173.13037109 -368.6652832 173.13037109 C-368.6652832 172.47037109 -368.6652832 171.81037109 -368.6652832 171.13037109 C-364.19469497 167.13037109 -364.19469497 167.13037109 -361.6652832 167.13037109 C-361.6652832 166.47037109 -361.6652832 165.81037109 -361.6652832 165.13037109 C-361.0052832 165.13037109 -360.3452832 165.13037109 -359.6652832 165.13037109 C-359.6652832 164.47037109 -359.6652832 163.81037109 -359.6652832 163.13037109 C-355.19469497 159.13037109 -355.19469497 159.13037109 -352.6652832 159.13037109 C-352.6652832 158.47037109 -352.6652832 157.81037109 -352.6652832 157.13037109 C-351.0480957 155.68505859 -351.0480957 155.68505859 -348.7902832 154.00537109 C-344.3423418 150.65707923 -340.02654517 147.1763571 -335.73168945 143.63427734 C-333.6652832 142.13037109 -333.6652832 142.13037109 -331.6652832 142.13037109 C-331.6652832 141.47037109 -331.6652832 140.81037109 -331.6652832 140.13037109 C-330.3452832 139.80037109 -329.0252832 139.47037109 -327.6652832 139.13037109 C-327.6652832 138.47037109 -327.6652832 137.81037109 -327.6652832 137.13037109 C-326.3452832 136.80037109 -325.0252832 136.47037109 -323.6652832 136.13037109 C-323.6652832 135.47037109 -323.6652832 134.81037109 -323.6652832 134.13037109 C-322.3452832 133.80037109 -321.0252832 133.47037109 -319.6652832 133.13037109 C-319.6652832 132.47037109 -319.6652832 131.81037109 -319.6652832 131.13037109 C-318.3452832 130.80037109 -317.0252832 130.47037109 -315.6652832 130.13037109 C-315.6652832 129.47037109 -315.6652832 128.81037109 -315.6652832 128.13037109 C-314.3452832 127.80037109 -313.0252832 127.47037109 -311.6652832 127.13037109 C-311.6652832 126.47037109 -311.6652832 125.81037109 -311.6652832 125.13037109 C-310.3452832 124.80037109 -309.0252832 124.47037109 -307.6652832 124.13037109 C-307.6652832 123.47037109 -307.6652832 122.81037109 -307.6652832 122.13037109 C-306.3452832 121.80037109 -305.0252832 121.47037109 -303.6652832 121.13037109 C-303.6652832 120.47037109 -303.6652832 119.81037109 -303.6652832 119.13037109 C-301.9074707 117.76318359 -301.9074707 117.76318359 -299.5402832 116.25537109 C-298.72172852 115.72943359 -297.90317383 115.20349609 -297.05981445 114.66162109 C-296.26961914 114.15630859 -295.47942383 113.65099609 -294.6652832 113.13037109 C-293.5176934 112.34125274 -292.37153721 111.55003889 -291.2277832 110.75537109 C-288.6652832 109.13037109 -288.6652832 109.13037109 -286.6652832 109.13037109 C-286.6652832 108.47037109 -286.6652832 107.81037109 -286.6652832 107.13037109 C-284.3293457 105.40380859 -284.3293457 105.40380859 -281.2902832 103.50537109 C-280.29254883 102.87373047 -279.29481445 102.24208984 -278.2668457 101.59130859 C-275.6652832 100.13037109 -275.6652832 100.13037109 -273.6652832 100.13037109 C-273.6652832 99.47037109 -273.6652832 98.81037109 -273.6652832 98.13037109 C-272.75907227 97.62248047 -271.85286133 97.11458984 -270.91918945 96.59130859 C-264.85718659 93.17381483 -258.90001152 89.71445741 -253.14575195 85.79443359 C-240.22258512 77.12471852 -226.70164037 69.37450329 -213.22338867 61.61181641 C-211.64239516 60.69623436 -210.06717096 59.77050487 -208.50170898 58.82861328 C-203.98055427 56.13037109 -203.98055427 56.13037109 -200.6652832 56.13037109 C-200.6652832 55.47037109 -200.6652832 54.81037109 -200.6652832 54.13037109 C-199.63790039 53.62248047 -198.61051758 53.11458984 -197.55200195 52.59130859 C-188.31010822 48.0139286 -188.31010822 48.0139286 -179.2277832 43.13037109 C-173.93313547 40.19598801 -168.48610834 37.64233671 -162.99804688 35.09570312 C-158.79989643 33.14574509 -154.65553124 31.12686198 -150.5402832 29.00537109 C-139.66184204 23.52894654 -128.34740787 19.52110115 -116.6652832 16.13037109 C-115.28727962 15.71502728 -113.90969617 15.29828779 -112.5324707 14.88037109 C-91.43330974 8.50830085 -70.03704632 5.01773221 -48.1652832 2.44287109 C-47.16537354 2.32363281 -46.16546387 2.20439453 -45.13525391 2.08154297 C-30.09925851 0.38872448 -15.1179585 -0.0347079 0 0 Z " fill="#000000" transform="translate(514.665283203125,740.86962890625)"/>
<path d="M0 0 C0.71734314 0.00432037 1.43468628 0.00864075 2.17376709 0.01309204 C23.35163656 0.16224854 41.75473053 3.91755066 60.6015625 13.82421875 C63.49004848 15.37226063 63.49004848 15.37226063 66.09765625 16.33203125 C69.40706605 17.69773823 72.39733995 19.50413228 75.4375 21.375 C76.03498047 21.73078125 76.63246094 22.0865625 77.24804688 22.453125 C78.74390414 23.36944442 80.18977862 24.36635247 81.625 25.375 C81.625 26.035 81.625 26.695 81.625 27.375 C82.285 27.560625 82.945 27.74625 83.625 27.9375 C87.89405268 29.98308774 91.36663706 32.94684643 94.625 36.375 C94.625 37.035 94.625 37.695 94.625 38.375 C95.264375 38.643125 95.90375 38.91125 96.5625 39.1875 C98.625 40.375 98.625 40.375 99.625 43.375 C100.285 43.375 100.945 43.375 101.625 43.375 C103.23134015 45.10891951 104.7625287 46.913091 106.25 48.75 C107.06726563 49.74773437 107.88453125 50.74546875 108.7265625 51.7734375 C110.625 54.375 110.625 54.375 110.625 56.375 C111.285 56.375 111.945 56.375 112.625 56.375 C113.93275702 58.23892955 115.14473672 60.17031569 116.3125 62.125 C116.66699219 62.71772705 117.02148438 63.3104541 117.38671875 63.92114258 C118.11941801 65.14890448 118.84904814 66.37850289 119.57568359 67.60986328 C120.50720305 69.1768446 121.46468285 70.72832832 122.42578125 72.27734375 C133.48684316 90.40731419 140.34062019 110.63887332 144.625 131.375 C144.79362549 132.15439941 144.96225098 132.93379883 145.13598633 133.73681641 C146.50091742 140.22524061 147.39483459 146.73211893 148.1875 153.3125 C148.31318359 154.31990234 148.43886719 155.32730469 148.56835938 156.36523438 C148.93704246 159.36681659 149.28481866 162.37006483 149.625 165.375 C149.73086426 166.25599365 149.83672852 167.1369873 149.94580078 168.04467773 C150.79415259 175.89738879 150.64253146 183.67923972 150.375 191.5625 C150.34249146 192.60374023 150.34249146 192.60374023 150.30932617 193.66601562 C149.91316411 205.88404546 148.7699246 217.91190993 146.96484375 230.0078125 C146.65003946 232.20058723 146.39668917 234.39183336 146.15625 236.59375 C145.62846874 240.35031072 144.70851852 243.74440437 143.625 247.375 C143.18643625 249.35651078 142.74873082 251.33829042 142.33178711 253.32446289 C140.69592107 261.11559187 138.75746354 268.7851209 136.5625 276.4375 C136.19463379 277.72068115 136.19463379 277.72068115 135.81933594 279.02978516 C133.37831757 287.4132291 130.65583397 295.61910958 127.3125 303.6875 C127.01053711 304.42025146 126.70857422 305.15300293 126.39746094 305.90795898 C124.16345411 311.25612455 121.69557925 316.4410117 118.984375 321.56640625 C117.51826843 324.46245498 117.51826843 324.46245498 116.34375 328.0078125 C114.30937856 333.56175126 111.31421698 338.57245535 108.375 343.6875 C107.82714844 344.65623047 107.27929688 345.62496094 106.71484375 346.62304688 C101.31709722 356.09754576 95.51571458 365.25131045 89.1953125 374.13671875 C87.8444747 376.06216666 86.5690939 378.01272002 85.3125 380 C84.755625 380.78375 84.19875 381.5675 83.625 382.375 C82.965 382.375 82.305 382.375 81.625 382.375 C81.30015625 383.38626953 81.30015625 383.38626953 80.96875 384.41796875 C79.20371339 388.30207548 76.77342339 391.36499469 74.125 394.6875 C73.62613281 395.33267578 73.12726563 395.97785156 72.61328125 396.64257812 C71.33503595 398.26180307 69.98510191 399.82389612 68.625 401.375 C67.965 401.375 67.305 401.375 66.625 401.375 C66.295 402.365 65.965 403.355 65.625 404.375 C64.965 404.375 64.305 404.375 63.625 404.375 C63.25375 405.2103125 63.25375 405.2103125 62.875 406.0625 C60.21988512 410.97446253 56.60404583 414.37242348 52.36328125 417.88671875 C50.39364245 419.52867559 50.39364245 419.52867559 47.875 422.1875 C45.625 424.375 45.625 424.375 42.625 425.375 C42.625 426.035 42.625 426.695 42.625 427.375 C41.965 427.375 41.305 427.375 40.625 427.375 C40.625 428.035 40.625 428.695 40.625 429.375 C38.7265625 431.1015625 38.7265625 431.1015625 36.25 433 C35.43789063 433.63164062 34.62578125 434.26328125 33.7890625 434.9140625 C31.625 436.375 31.625 436.375 29.625 436.375 C29.625 437.035 29.625 437.695 29.625 438.375 C28.305 438.705 26.985 439.035 25.625 439.375 C25.625 440.035 25.625 440.695 25.625 441.375 C23.2890625 443.1015625 23.2890625 443.1015625 20.25 445 C18.75339844 445.94746094 18.75339844 445.94746094 17.2265625 446.9140625 C14.625 448.375 14.625 448.375 12.625 448.375 C12.625 449.035 12.625 449.695 12.625 450.375 C10.09209578 452.06158053 7.57210838 453.61176323 4.9375 455.125 C4.17034668 455.57020996 3.40319336 456.01541992 2.61279297 456.47412109 C-14.67873113 466.375 -14.67873113 466.375 -20.375 466.375 C-20.375 467.035 -20.375 467.695 -20.375 468.375 C-22.95622508 469.21539886 -25.53963901 470.04750556 -28.125 470.875 C-28.85460937 471.11347656 -29.58421875 471.35195313 -30.3359375 471.59765625 C-31.04492188 471.82324219 -31.75390625 472.04882812 -32.484375 472.28125 C-33.13374023 472.49072266 -33.78310547 472.70019531 -34.45214844 472.91601562 C-36.375 473.375 -36.375 473.375 -40.375 473.375 C-40.705 474.035 -41.035 474.695 -41.375 475.375 C-43.355 475.375 -45.335 475.375 -47.375 475.375 C-47.705 476.035 -48.035 476.695 -48.375 477.375 C-85.18302362 487.62713811 -123.64094225 479.27754333 -156.515625 461.6953125 C-157.12921875 461.25960938 -157.7428125 460.82390625 -158.375 460.375 C-158.375 459.715 -158.375 459.055 -158.375 458.375 C-159.365 458.065625 -159.365 458.065625 -160.375 457.75 C-164.44680186 455.88375748 -168.06296998 453.39938473 -171.375 450.375 C-171.375 449.715 -171.375 449.055 -171.375 448.375 C-172.695 448.045 -174.015 447.715 -175.375 447.375 C-175.375 446.715 -175.375 446.055 -175.375 445.375 C-176.365 445.045 -177.355 444.715 -178.375 444.375 C-178.375 443.715 -178.375 443.055 -178.375 442.375 C-179.365 442.045 -180.355 441.715 -181.375 441.375 C-181.375 440.715 -181.375 440.055 -181.375 439.375 C-182.035 439.375 -182.695 439.375 -183.375 439.375 C-183.375 438.715 -183.375 438.055 -183.375 437.375 C-184.365 437.045 -185.355 436.715 -186.375 436.375 C-186.375 435.715 -186.375 435.055 -186.375 434.375 C-187.035 434.375 -187.695 434.375 -188.375 434.375 C-191.375 430.91346154 -191.375 430.91346154 -191.375 428.375 C-192.035 428.375 -192.695 428.375 -193.375 428.375 C-194.6640625 426.6953125 -194.6640625 426.6953125 -196 424.5 C-196.44601562 423.78070313 -196.89203125 423.06140625 -197.3515625 422.3203125 C-198.375 420.375 -198.375 420.375 -198.375 418.375 C-199.035 418.375 -199.695 418.375 -200.375 418.375 C-202.37901903 415.75034788 -203.92474615 412.80116522 -205.5625 409.9375 C-206.05500244 409.08164307 -206.54750488 408.22578613 -207.05493164 407.34399414 C-211.59558775 399.28286207 -215.07575477 391.0002995 -218.375 382.375 C-219.0820766 380.74945277 -219.79021616 379.12436696 -220.5 377.5 C-223.60710432 369.7524152 -225.35740238 361.4589379 -227.375 353.375 C-227.54233643 352.73087158 -227.70967285 352.08674316 -227.88208008 351.4230957 C-228.91375714 347.13644939 -229.606665 342.7774792 -230.375 338.4375 C-230.64183594 336.9824707 -230.64183594 336.9824707 -230.9140625 335.49804688 C-233.21484937 322.47456298 -233.56154435 309.53654102 -233.56030273 296.34814453 C-233.56247895 293.77489402 -233.58067813 291.2020809 -233.59960938 288.62890625 C-233.65179435 273.43136982 -232.42215008 258.44018229 -229.5625 243.5 C-229.39363281 242.59709229 -229.22476563 241.69418457 -229.05078125 240.76391602 C-226.30153516 226.40881722 -222.86837096 212.28305298 -218.375 198.375 C-217.85071884 196.58433921 -217.32968336 194.79272368 -216.8125 193 C-215.82523888 189.70033047 -214.68278236 186.56821479 -213.2578125 183.42578125 C-211.56812838 179.50063008 -210.14078697 175.46728407 -208.65625 171.4609375 C-207.44944424 168.55430167 -206.01217616 166.05361436 -204.375 163.375 C-203.77774602 161.95158854 -203.21564747 160.51297329 -202.6875 159.0625 C-198.43277095 148.20892703 -192.83598825 137.94733403 -187 127.875 C-186.57122559 127.12661865 -186.14245117 126.3782373 -185.70068359 125.60717773 C-184.65099609 123.82706349 -183.52033585 122.09513266 -182.375 120.375 C-181.715 120.375 -181.055 120.375 -180.375 120.375 C-180.0965625 119.199375 -180.0965625 119.199375 -179.8125 118 C-177.78504402 112.88728492 -174.60138566 108.79606148 -171.375 104.375 C-170.385 102.89 -170.385 102.89 -169.375 101.375 C-168.715 101.375 -168.055 101.375 -167.375 101.375 C-167.106875 100.405625 -166.83875 99.43625 -166.5625 98.4375 C-166.170625 97.426875 -165.77875 96.41625 -165.375 95.375 C-164.385 95.045 -163.395 94.715 -162.375 94.375 C-162.02087656 93.04703709 -161.68978446 91.71283393 -161.375 90.375 C-160.38715672 89.3629893 -159.38411105 88.36580518 -158.375 87.375 C-156.29295152 84.75697864 -154.25265146 82.1095966 -152.21484375 79.45703125 C-151.30412109 78.42642578 -151.30412109 78.42642578 -150.375 77.375 C-149.715 77.375 -149.055 77.375 -148.375 77.375 C-147.88 75.89 -147.88 75.89 -147.375 74.375 C-146.715 74.375 -146.055 74.375 -145.375 74.375 C-145.1378125 73.81296875 -144.900625 73.2509375 -144.65625 72.671875 C-143.08552303 69.85605958 -141.16028536 67.89544584 -138.875 65.625 C-137.68390625 64.42617187 -137.68390625 64.42617187 -136.46875 63.203125 C-134.375 61.375 -134.375 61.375 -132.375 61.375 C-132.106875 60.735625 -131.83875 60.09625 -131.5625 59.4375 C-130.375 57.375 -130.375 57.375 -127.375 56.375 C-127.375 55.715 -127.375 55.055 -127.375 54.375 C-122.90441176 50.375 -122.90441176 50.375 -120.375 50.375 C-120.375 49.715 -120.375 49.055 -120.375 48.375 C-119.055 48.045 -117.735 47.715 -116.375 47.375 C-116.375 46.715 -116.375 46.055 -116.375 45.375 C-115.715 45.375 -115.055 45.375 -114.375 45.375 C-114.375 44.715 -114.375 44.055 -114.375 43.375 C-108.96323529 39.375 -108.96323529 39.375 -106.375 39.375 C-106.375 38.715 -106.375 38.055 -106.375 37.375 C-104.0390625 35.6484375 -104.0390625 35.6484375 -101 33.75 C-100.00226563 33.11835937 -99.00453125 32.48671875 -97.9765625 31.8359375 C-95.375 30.375 -95.375 30.375 -93.375 30.375 C-93.045 29.715 -92.715 29.055 -92.375 28.375 C-90.31249879 27.05166107 -88.25958822 25.82148767 -86.125 24.625 C-85.49601807 24.27010498 -84.86703613 23.91520996 -84.21899414 23.54956055 C-73.99299867 17.85962969 -63.32597822 13.45965631 -52.375 9.375 C-51.65828125 9.08753906 -50.9415625 8.80007812 -50.203125 8.50390625 C-34.28399518 2.15598878 -17.02385129 -0.19591906 0 0 Z " fill="#010101" transform="translate(791.375,33.625)"/>
<path d="M0 0 C0.67315247 0.00182281 1.34630493 0.00364563 2.03985596 0.00552368 C12.83631301 0.05452738 23.1979305 0.67287604 33.6875 3.3125 C34.74831787 3.57788574 34.74831787 3.57788574 35.83056641 3.84863281 C49.2761672 7.32175477 62.15293632 11.96857583 74.125 19.0625 C74.78258301 19.45147461 75.44016602 19.84044922 76.11767578 20.24121094 C77.68049482 21.20352758 79.1904475 22.25076064 80.6875 23.3125 C80.6875 23.9725 80.6875 24.6325 80.6875 25.3125 C81.615625 25.580625 82.54375 25.84875 83.5 26.125 C86.66561604 27.30434715 87.47596864 27.96727405 89.6875 30.3125 C91.01285708 31.48821999 92.34664351 32.65448758 93.6875 33.8125 C98.94836957 38.35597826 98.94836957 38.35597826 100.6875 40.3125 C100.6875 40.9725 100.6875 41.6325 100.6875 42.3125 C101.326875 42.580625 101.96625 42.84875 102.625 43.125 C104.6875 44.3125 104.6875 44.3125 105.6875 47.3125 C106.3475 47.3125 107.0075 47.3125 107.6875 47.3125 C109.1953125 48.9921875 109.1953125 48.9921875 110.8125 51.1875 C111.35132813 51.90679687 111.89015625 52.62609375 112.4453125 53.3671875 C113.6875 55.3125 113.6875 55.3125 113.6875 57.3125 C114.3475 57.3125 115.0075 57.3125 115.6875 57.3125 C118.0167235 60.42067693 119.79549443 63.92680582 121.6875 67.3125 C122.0592334 67.9715332 122.4309668 68.63056641 122.81396484 69.30957031 C124.03683122 71.49009111 125.23953832 73.68070898 126.4375 75.875 C126.82623291 76.57036865 127.21496582 77.2657373 127.61547852 77.98217773 C130.01319866 82.4485397 131.3730044 86.53509436 132.20410156 91.54272461 C132.36362305 92.12675049 132.52314453 92.71077637 132.6875 93.3125 C133.3475 93.6425 134.0075 93.9725 134.6875 94.3125 C137.11844045 100.2196853 138.19837752 106.58356645 139.16015625 112.8671875 C139.5765111 115.30737669 139.5765111 115.30737669 140.7109375 117.3125 C141.90293596 119.75371285 142.06468291 121.73265903 142.25 124.4375 C142.36021484 125.87802734 142.36021484 125.87802734 142.47265625 127.34765625 C142.54355469 128.32605469 142.61445312 129.30445313 142.6875 130.3125 C142.84648637 132.167341 143.01264973 134.02158715 143.1875 135.875 C143.2596875 136.68066406 143.331875 137.48632812 143.40625 138.31640625 C143.58924716 140.38103354 143.58924716 140.38103354 144.6875 142.3125 C146.33938503 170.15300945 144.04441234 200.60449035 135.6875 227.3125 C135.39230469 228.3025 135.09710937 229.2925 134.79296875 230.3125 C125.30403838 261.32313201 111.83050627 289.2154122 95.6875 317.3125 C95.17034424 318.24876221 94.65318848 319.18502441 94.12036133 320.1496582 C93.41109497 321.22026489 93.41109497 321.22026489 92.6875 322.3125 C92.0275 322.3125 91.3675 322.3125 90.6875 322.3125 C90.43742187 323.02535156 90.18734375 323.73820312 89.9296875 324.47265625 C88.56044212 327.6029751 86.86395336 330.02117997 84.8125 332.75 C82.54880945 335.78465763 80.32735006 338.79455672 78.3125 342 C77.77625 342.763125 77.24 343.52625 76.6875 344.3125 C76.0275 344.3125 75.3675 344.3125 74.6875 344.3125 C74.584375 344.910625 74.48125 345.50875 74.375 346.125 C73.56580872 348.69969951 72.59797644 349.42819447 70.6875 351.3125 C68.60545152 353.93052136 66.56515146 356.5779034 64.52734375 359.23046875 C63.92019531 359.91753906 63.31304688 360.60460937 62.6875 361.3125 C62.0275 361.3125 61.3675 361.3125 60.6875 361.3125 C60.3575 362.3025 60.0275 363.2925 59.6875 364.3125 C59.0275 364.3125 58.3675 364.3125 57.6875 364.3125 C57.43677734 364.88774414 57.18605469 365.46298828 56.92773438 366.05566406 C55.52021173 368.61691196 53.90579975 370.35307392 51.84375 372.421875 C51.09222656 373.17597656 50.34070312 373.93007813 49.56640625 374.70703125 C48.78136719 375.48433594 47.99632812 376.26164062 47.1875 377.0625 C46.00994141 378.25166016 46.00994141 378.25166016 44.80859375 379.46484375 C44.05707031 380.21378906 43.30554687 380.96273438 42.53125 381.734375 C41.84224609 382.42112305 41.15324219 383.10787109 40.44335938 383.81542969 C38.6875 385.3125 38.6875 385.3125 36.6875 385.3125 C36.6875 385.9725 36.6875 386.6325 36.6875 387.3125 C36.0275 387.3125 35.3675 387.3125 34.6875 387.3125 C34.6875 387.9725 34.6875 388.6325 34.6875 389.3125 C30.21691176 393.3125 30.21691176 393.3125 27.6875 393.3125 C27.6875 393.9725 27.6875 394.6325 27.6875 395.3125 C26.3675 395.6425 25.0475 395.9725 23.6875 396.3125 C23.6875 396.9725 23.6875 397.6325 23.6875 398.3125 C23.0275 398.3125 22.3675 398.3125 21.6875 398.3125 C21.6875 398.9725 21.6875 399.6325 21.6875 400.3125 C16.27573529 404.3125 16.27573529 404.3125 13.6875 404.3125 C13.6875 404.9725 13.6875 405.6325 13.6875 406.3125 C8.27573529 410.3125 8.27573529 410.3125 5.6875 410.3125 C5.3575 410.9725 5.0275 411.6325 4.6875 412.3125 C2.37921021 413.97599966 0.06495648 415.56628348 -2.3125 417.125 C-2.99078857 417.57278809 -3.66907715 418.02057617 -4.36791992 418.48193359 C-17.85469077 427.3125 -17.85469077 427.3125 -21.3125 427.3125 C-21.6425 428.3025 -21.9725 429.2925 -22.3125 430.3125 C-23.88470046 430.76669124 -25.4614594 431.20757929 -27.05078125 431.59765625 C-29.81877105 432.47251313 -32.23640818 433.72404474 -34.8125 435.0625 C-50.7505774 443.20995001 -67.81155115 448.68877412 -85.3125 452.3125 C-87.14167969 452.7146875 -87.14167969 452.7146875 -89.0078125 453.125 C-99.41836364 455.32572139 -109.69254197 456.01926914 -120.3125 456.3125 C-121.0034375 456.33973145 -121.694375 456.36696289 -122.40625 456.39501953 C-137.62477499 456.9857777 -152.71266522 454.58941565 -167.3125 450.3125 C-169.02759766 449.82523438 -169.02759766 449.82523438 -170.77734375 449.328125 C-184.78514181 445.03612392 -197.66390177 438.2022197 -209.3125 429.3125 C-210.17101562 428.67957031 -211.02953125 428.04664063 -211.9140625 427.39453125 C-216.6229055 423.85925438 -216.6229055 423.85925438 -218.3125 422.3125 C-218.3125 421.6525 -218.3125 420.9925 -218.3125 420.3125 C-218.87839844 420.07273437 -219.44429687 419.83296875 -220.02734375 419.5859375 C-222.78552711 418.04889857 -224.6645728 416.18906882 -226.875 413.9375 C-227.63941406 413.16664063 -228.40382813 412.39578125 -229.19140625 411.6015625 C-234.3125 406.07493094 -234.3125 406.07493094 -234.3125 403.3125 C-234.9725 403.3125 -235.6325 403.3125 -236.3125 403.3125 C-236.6425 401.9925 -236.9725 400.6725 -237.3125 399.3125 C-237.9725 399.3125 -238.6325 399.3125 -239.3125 399.3125 C-239.3125 398.6525 -239.3125 397.9925 -239.3125 397.3125 C-239.9725 396.9825 -240.6325 396.6525 -241.3125 396.3125 C-242.41060061 394.72509032 -243.44441731 393.09263782 -244.4375 391.4375 C-244.97632813 390.55320312 -245.51515625 389.66890625 -246.0703125 388.7578125 C-247.3125 386.3125 -247.3125 386.3125 -247.3125 383.3125 C-247.9725 383.3125 -248.6325 383.3125 -249.3125 383.3125 C-259.86914869 358.97719818 -266.20366754 336.23531401 -268.12451172 309.70703125 C-268.28313901 307.68649042 -268.4967128 305.67037448 -268.72265625 303.65625 C-269.93515075 292.17239408 -268.56505876 280.74233486 -267.3125 269.3125 C-267.21984863 268.45881836 -267.12719727 267.60513672 -267.03173828 266.72558594 C-263.79125202 238.48950352 -254.93147245 211.58035342 -243.71484375 185.61328125 C-242.57318795 182.92609698 -241.52007082 180.23416242 -240.5 177.5 C-238.70422802 172.95531554 -236.41452597 168.93820092 -233.77734375 164.83203125 C-232.19275014 162.22694651 -232.19275014 162.22694651 -230.8671875 158.91015625 C-229.32966759 155.35222701 -227.5545463 152.21991125 -225.5 148.9375 C-224.9733374 148.09396973 -224.9733374 148.09396973 -224.43603516 147.23339844 C-221.9349637 143.24671102 -219.36861543 139.30725765 -216.73046875 135.41015625 C-215.7835556 134.00935085 -214.84863314 132.60036637 -213.92578125 131.18359375 C-209.67565644 124.67449849 -205.03768606 118.48188766 -200.3125 112.3125 C-199.83490234 111.68456543 -199.35730469 111.05663086 -198.86523438 110.40966797 C-197.37567135 108.45497874 -195.87675826 106.50783017 -194.375 104.5625 C-193.90231689 103.94157471 -193.42963379 103.32064941 -192.94262695 102.6809082 C-191.7796476 101.18691567 -190.55142281 99.74414414 -189.3125 98.3125 C-188.6525 98.3125 -187.9925 98.3125 -187.3125 98.3125 C-187.02375 97.714375 -186.735 97.11625 -186.4375 96.5 C-185.3125 94.3125 -185.3125 94.3125 -183.3125 91.3125 C-182.6525 91.3125 -181.9925 91.3125 -181.3125 91.3125 C-180.8175 89.8275 -180.8175 89.8275 -180.3125 88.3125 C-179.6525 88.3125 -178.9925 88.3125 -178.3125 88.3125 C-177.8175 86.8275 -177.8175 86.8275 -177.3125 85.3125 C-176.6525 85.3125 -175.9925 85.3125 -175.3125 85.3125 C-175.044375 84.673125 -174.77625 84.03375 -174.5 83.375 C-173.3125 81.3125 -173.3125 81.3125 -170.3125 80.3125 C-169.9825 79.6525 -169.6525 78.9925 -169.3125 78.3125 C-168.3125 76.3125 -168.3125 76.3125 -165.3125 75.3125 C-165.3125 74.6525 -165.3125 73.9925 -165.3125 73.3125 C-163.9375 71.6875 -163.9375 71.6875 -162.3125 70.3125 C-161.6525 70.3125 -160.9925 70.3125 -160.3125 70.3125 C-159.9825 69.6525 -159.6525 68.9925 -159.3125 68.3125 C-157.375 66.1875 -157.375 66.1875 -155.3125 64.3125 C-154.6525 64.3125 -153.9925 64.3125 -153.3125 64.3125 C-153.3125 63.6525 -153.3125 62.9925 -153.3125 62.3125 C-149.85096154 59.3125 -149.85096154 59.3125 -147.3125 59.3125 C-147.3125 58.6525 -147.3125 57.9925 -147.3125 57.3125 C-145.1953125 55.5859375 -145.1953125 55.5859375 -142.4375 53.6875 C-141.53257813 53.05585938 -140.62765625 52.42421875 -139.6953125 51.7734375 C-137.3125 50.3125 -137.3125 50.3125 -135.3125 50.3125 C-135.3125 49.6525 -135.3125 48.9925 -135.3125 48.3125 C-133.9925 47.9825 -132.6725 47.6525 -131.3125 47.3125 C-131.3125 46.6525 -131.3125 45.9925 -131.3125 45.3125 C-124.5625 41.3125 -124.5625 41.3125 -122.3125 41.3125 C-121.9825 40.6525 -121.6525 39.9925 -121.3125 39.3125 C-113.33975895 33.07296353 -104.18928732 28.55987179 -95.0625 24.25 C-93.13093591 23.32386225 -93.13093591 23.32386225 -91.3125 21.3125 C-89.98871434 20.94306744 -88.65353268 20.6133658 -87.3125 20.3125 C-85.96757992 19.79553121 -84.63298246 19.2510982 -83.30859375 18.68359375 C-82.19774414 18.21469727 -82.19774414 18.21469727 -81.06445312 17.73632812 C-79.51676852 17.07676633 -77.96989614 16.41529549 -76.42382812 15.75195312 C-75.68455078 15.44064453 -74.94527344 15.12933594 -74.18359375 14.80859375 C-73.51255615 14.52169678 -72.84151855 14.2347998 -72.15014648 13.93920898 C-70.3125 13.3125 -70.3125 13.3125 -67.3125 13.3125 C-66.9825 12.6525 -66.6525 11.9925 -66.3125 11.3125 C-64.73828125 10.8359375 -64.73828125 10.8359375 -62.3125 10.3125 C-60.43419383 9.74306803 -58.55602121 9.1731818 -56.67919922 8.59887695 C-38.13527634 2.97088154 -19.40063438 -0.08411737 0 0 Z " fill="#010101" transform="translate(1173.3125,247.6875)"/>
<path d="M0 0 C0.99 0.33 1.98 0.66 3 1 C4.88088965 1.048398 6.76355693 1.03717477 8.64453125 0.9921875 C45.06442521 0.38000198 76.18096652 7.86096672 107.515625 26.65625 C108.18368164 27.05650391 108.85173828 27.45675781 109.54003906 27.86914062 C110.02182617 28.24232422 110.50361328 28.61550781 111 29 C111 29.66 111 30.32 111 31 C111.7321875 31.26167969 112.464375 31.52335938 113.21875 31.79296875 C119.64116726 34.58022568 125.36770115 39.7886638 130 45 C130.33 45.99 130.66 46.98 131 48 C131.66 48.33 132.32 48.66 133 49 C133.66 49.33 134.32 49.66 135 50 C135.33 50.99 135.66 51.98 136 53 C136.66 53 137.32 53 138 53 C154 71.67209776 154 71.67209776 154 78 C154.66 78 155.32 78 156 78 C161.38850566 89.48066497 166.5174312 100.80812807 170.10546875 112.9921875 C170.68895389 114.95412445 171.32382012 116.90171448 172.015625 118.828125 C175.77184978 130.93151595 176.68210117 144.41465642 177 157 C177.02723145 158.01239746 177.05446289 159.02479492 177.08251953 160.06787109 C177.72221094 187.92864488 174.25724844 214.59814693 165 241 C164.62359375 242.11503906 164.2471875 243.23007812 163.859375 244.37890625 C157.04871175 263.92359127 148.17353064 282.57648642 137 300 C136.39027344 300.96808594 135.78054688 301.93617188 135.15234375 302.93359375 C133.44944476 305.6320337 131.72770928 308.31739753 130 311 C129.43925781 311.88558594 128.87851563 312.77117187 128.30078125 313.68359375 C127.76839844 314.50988281 127.23601562 315.33617187 126.6875 316.1875 C126.21699219 316.92355469 125.74648437 317.65960937 125.26171875 318.41796875 C124.84535156 318.94003906 124.42898438 319.46210937 124 320 C123.34 320 122.68 320 122 320 C121.7525 320.721875 121.505 321.44375 121.25 322.1875 C119.87730408 325.27606582 118.27646704 327.51011418 116 330 C115.34 330 114.68 330 114 330 C113.34 331.65 112.68 333.3 112 335 C111.34 335 110.68 335 110 335 C109.75636719 335.56203125 109.51273438 336.1240625 109.26171875 336.703125 C107.75819064 339.44019785 105.93300252 341.45795941 103.8125 343.75 C100.96113296 346.85188651 98.15862827 349.97105114 95.4375 353.1875 C90.99287381 358.28331561 86.21008828 363.163463 80 366 C80 366.66 80 367.32 80 368 C78.1015625 369.7265625 78.1015625 369.7265625 75.625 371.625 C74.81289062 372.25664063 74.00078125 372.88828125 73.1640625 373.5390625 C71 375 71 375 69 375 C69 375.66 69 376.32 69 377 C67.69335938 378.16992188 67.69335938 378.16992188 65.84375 379.46875 C65.15901611 379.9524707 64.47428223 380.43619141 63.76879883 380.93457031 C63.02009521 381.45116211 62.2713916 381.96775391 61.5 382.5 C60.73260498 383.03463867 59.96520996 383.56927734 59.17456055 384.12011719 C51.61116582 389.34587633 43.88181419 394.270505 36 399 C35.4009082 399.36077637 34.80181641 399.72155273 34.18457031 400.09326172 C-12.68107312 428.12734352 -71.97307673 442.43736504 -125.71240234 428.96044922 C-145.6080192 423.7750711 -162.83085711 416.43699662 -180 405 C-180.73863281 404.51144531 -181.47726562 404.02289062 -182.23828125 403.51953125 C-183.86786885 402.4059253 -185.44201908 401.21176294 -187 400 C-187 399.34 -187 398.68 -187 398 C-187.8353125 397.9071875 -187.8353125 397.9071875 -188.6875 397.8125 C-191.98041671 396.65552926 -193.64219554 394.5346398 -196 392 C-197.1446875 390.9171875 -197.1446875 390.9171875 -198.3125 389.8125 C-200 388 -200 388 -200 386 C-200.639375 385.731875 -201.27875 385.46375 -201.9375 385.1875 C-204 384 -204 384 -205 381 C-205.66 381 -206.32 381 -207 381 C-210 377.53846154 -210 377.53846154 -210 375 C-210.66 375 -211.32 375 -212 375 C-216 369.58823529 -216 369.58823529 -216 367 C-216.66 366.67 -217.32 366.34 -218 366 C-227 354.39473684 -227 354.39473684 -227 348 C-227.66 348 -228.32 348 -229 348 C-235.70402738 332.50933318 -241.93322685 317.00246643 -243.67578125 300.1015625 C-243.93645029 297.09789431 -243.93645029 297.09789431 -244.5078125 294.57421875 C-252.49080759 252.82188728 -242.19210069 202.87623331 -222.359375 165.7734375 C-220.89246287 162.92350455 -220.89246287 162.92350455 -219.76953125 159.4453125 C-217.56602846 153.42088749 -214.17790857 148.01166138 -210.9375 142.5 C-210.30005859 141.39140625 -209.66261719 140.2828125 -209.00585938 139.140625 C-208.39419922 138.09390625 -207.78253906 137.0471875 -207.15234375 135.96875 C-206.59538818 135.01419922 -206.03843262 134.05964844 -205.46459961 133.07617188 C-204.98128174 132.39103516 -204.49796387 131.70589844 -204 131 C-203.34 131 -202.68 131 -202 131 C-201.75121094 130.1234375 -201.50242187 129.246875 -201.24609375 128.34375 C-199.9307121 124.81407385 -198.3669353 122.46701253 -196.0625 119.5 C-195.26328125 118.46488281 -194.4640625 117.42976562 -193.640625 116.36328125 C-192.76061505 115.24203177 -191.88039929 114.1209438 -191 113 C-190.05682709 111.7855169 -189.11412797 110.57066572 -188.171875 109.35546875 C-178.14535362 96.46422697 -178.14535362 96.46422697 -174 92 C-173.34 92 -172.68 92 -172 92 C-171.7525 91.443125 -171.505 90.88625 -171.25 90.3125 C-169.15837296 86.44298998 -166.33694534 82.88190734 -163 80 C-162.34 80 -161.68 80 -161 80 C-161 79.34 -161 78.68 -161 78 C-159.3203125 76.2734375 -159.3203125 76.2734375 -157.125 74.375 C-156.40570312 73.74335937 -155.68640625 73.11171875 -154.9453125 72.4609375 C-153 71 -153 71 -151 71 C-151 70.34 -151 69.68 -151 69 C-150.34 69 -149.68 69 -149 69 C-149 68.34 -149 67.68 -149 67 C-144.52941176 63 -144.52941176 63 -142 63 C-142 62.34 -142 61.68 -142 61 C-140.68 60.67 -139.36 60.34 -138 60 C-138 59.34 -138 58.68 -138 58 C-137.34 58 -136.68 58 -136 58 C-136 57.34 -136 56.68 -136 56 C-130.58823529 52 -130.58823529 52 -128 52 C-128 51.34 -128 50.68 -128 50 C-126.48828125 48.7734375 -126.48828125 48.7734375 -124.3125 47.375 C-123.4875 46.84390625 -122.6625 46.3128125 -121.8125 45.765625 C-120.884375 45.18296875 -119.95625 44.6003125 -119 44 C-117.515 43.06414063 -117.515 43.06414063 -116 42.109375 C-98.29516837 31.08724943 -80.47381254 21.73932613 -60.83300781 14.67919922 C-58.06610009 13.65395451 -55.35277083 12.49960727 -52.625 11.375 C-37.44546852 5.54247066 -20.59579901 3.32246809 -4.5078125 1.48046875 C-1.18373768 1.38527382 -1.18373768 1.38527382 0 0 Z " fill="#010101" transform="translate(1179,760)"/>
<path d="M0 0 C0 0.66 0 1.32 0 2 C0.680625 2.21914063 1.36125 2.43828125 2.0625 2.6640625 C5.85340041 4.38811561 8.78145724 6.76165332 12 9.375 C12.60328125 9.85710937 13.2065625 10.33921875 13.828125 10.8359375 C15.01150755 11.78264354 16.19217052 12.7327607 17.36987305 13.68652344 C18.80271467 14.84103714 20.25353504 15.97316285 21.70703125 17.1015625 C23.92716452 18.93969669 25.7987778 20.82690838 27.6875 23 C28.26886719 23.66 28.85023438 24.32 29.44921875 25 C30.94430264 26.92816864 31.99563238 28.78346455 33 31 C33.66 31 34.32 31 35 31 C36.31274414 32.40527344 36.31274414 32.40527344 37.78515625 34.359375 C38.58083008 35.41511719 38.58083008 35.41511719 39.39257812 36.4921875 C40.21918945 37.60980469 40.21918945 37.60980469 41.0625 38.75 C41.61744141 39.47960937 42.17238281 40.20921875 42.74414062 40.9609375 C43.53788086 42.02441406 43.53788086 42.02441406 44.34765625 43.109375 C44.83242432 43.75874023 45.31719238 44.40810547 45.81665039 45.07714844 C47.03737536 47.06073207 47.56701265 48.72404894 48 51 C48.66 51 49.32 51 50 51 C58.21030764 62.82804214 64.10087281 76.54029268 69 90 C69.33644531 90.85464844 69.67289062 91.70929688 70.01953125 92.58984375 C79.94777561 118.26088196 85.3535472 148.21634129 84.9609375 175.73828125 C84.91267566 177.98681592 84.91267566 177.98681592 85.5234375 180.046875 C86.0752681 182.30847584 85.92323081 183.94475645 85.625 186.25 C85.12092247 190.58506677 84.83937815 194.8909776 84.625 199.25 C83.62015878 217.17255585 81.08749576 235.76878831 76 253 C75.71640625 254.02738281 75.4328125 255.05476563 75.140625 256.11328125 C70.76793793 271.82043349 65.46418198 287.03176234 59 302 C58.72164307 302.66765381 58.44328613 303.33530762 58.15649414 304.02319336 C55.40843219 310.46186787 52.08149679 316.55457324 48.67407227 322.6652832 C47.69311081 324.4274211 46.72224621 326.19486101 45.75195312 327.96289062 C42.3137767 334.15300157 38.72869203 340.07871943 34.55395508 345.80102539 C32.91404883 348.04440923 32.91404883 348.04440923 31.42456055 350.77905273 C30.71940308 351.87842163 30.71940308 351.87842163 30 353 C29.34 353 28.68 353 28 353 C27.67515625 354.01126953 27.67515625 354.01126953 27.34375 355.04296875 C25.57871339 358.92707548 23.14842339 361.98999469 20.5 365.3125 C20.00113281 365.95767578 19.50226563 366.60285156 18.98828125 367.26757812 C17.71003595 368.88680307 16.36010191 370.44889612 15 372 C14.34 372 13.68 372 13 372 C12.67 372.99 12.34 373.98 12 375 C11.34 375 10.68 375 10 375 C9.6596875 375.804375 9.6596875 375.804375 9.3125 376.625 C7.54429911 379.82460161 5.46329797 382.29037223 3 385 C2.34 385 1.68 385 1 385 C1 385.66 1 386.32 1 387 C-0.4609375 388.5078125 -0.4609375 388.5078125 -2.375 390.125 C-3.00148438 390.66382813 -3.62796875 391.20265625 -4.2734375 391.7578125 C-6 393 -6 393 -8 393 C-8 393.66 -8 394.32 -8 395 C-12.47058824 399 -12.47058824 399 -15 399 C-15 399.66 -15 400.32 -15 401 C-17.25814848 402.79826445 -19.51277739 404.4746801 -21.875 406.125 C-22.52597656 406.59292969 -23.17695313 407.06085938 -23.84765625 407.54296875 C-28.73587828 411 -28.73587828 411 -31 411 C-31 411.66 -31 412.32 -31 413 C-32.98095703 414.41699219 -32.98095703 414.41699219 -35.7578125 416.046875 C-37.2749585 416.93934937 -37.2749585 416.93934937 -38.82275391 417.84985352 C-39.91249512 418.47690186 -41.00223633 419.1039502 -42.125 419.75 C-43.22634277 420.38671631 -44.32768555 421.02343262 -45.46240234 421.67944336 C-53.13880646 426.06200716 -60.70119824 429.92560035 -69 433 C-70.06089844 433.4228125 -71.12179687 433.845625 -72.21484375 434.28125 C-89.26001927 440.80495779 -106.83101995 443.95110196 -125 445 C-126.10988281 445.0721875 -127.21976563 445.144375 -128.36328125 445.21875 C-154.94494278 446.06372997 -180.29275843 438.5100473 -203.4375 426 C-204.36119385 425.50177734 -205.2848877 425.00355469 -206.23657227 424.49023438 C-211.2607539 421.71413184 -215.9134888 418.75098416 -220.42602539 415.19921875 C-222.00146262 413.92162967 -222.00146262 413.92162967 -224 413 C-224 412.34 -224 411.68 -224 411 C-224.56074219 410.75636719 -225.12148437 410.51273438 -225.69921875 410.26171875 C-232.76938314 406.38453183 -239.81589927 399.19688862 -245 393 C-245 392.34 -245 391.68 -245 391 C-245.66 391 -246.32 391 -247 391 C-251 386.52941176 -251 386.52941176 -251 384 C-251.66 384 -252.32 384 -253 384 C-253.33 382.68 -253.66 381.36 -254 380 C-254.66 380 -255.32 380 -256 380 C-257.41471734 378.02660447 -258.71425437 376.05480039 -260 374 C-260.72316406 372.91847656 -261.44632813 371.83695313 -262.19140625 370.72265625 C-272.26210584 355.32240904 -280.45819594 338.56017432 -286 321 C-286.33128906 320.03449219 -286.66257812 319.06898438 -287.00390625 318.07421875 C-303.73786764 267.47859432 -303.21702336 205.61057783 -285.75 155.2109375 C-284.68927064 152.08399574 -283.76818291 148.91948425 -282.84375 145.75 C-282.5653125 144.8425 -282.286875 143.935 -282 143 C-281.42958984 141.1128125 -281.42958984 141.1128125 -280.84765625 139.1875 C-278.40373309 131.91731679 -275.11441431 124.97194894 -271.9375 118 C-271.60529449 117.26854767 -271.27308899 116.53709534 -270.93081665 115.78347778 C-267.0001596 107.15634061 -263.00532698 98.61453739 -258.1875 90.4375 C-257.78587646 89.75494141 -257.38425293 89.07238281 -256.97045898 88.36914062 C-256.04698995 86.86959029 -255.03388243 85.42566945 -254 84 C-253.34 84 -252.68 84 -252 84 C-251.7215625 82.824375 -251.7215625 82.824375 -251.4375 81.625 C-249.41004402 76.51228492 -246.22638566 72.42106148 -243 68 C-242.01 66.515 -242.01 66.515 -241 65 C-240.34 65 -239.68 65 -239 65 C-238.67322266 63.96552734 -238.67322266 63.96552734 -238.33984375 62.91015625 C-236.62548878 59.18655727 -234.25890394 56.49248699 -231.5625 53.4375 C-230.5836692 52.31203752 -229.60577978 51.18575551 -228.62890625 50.05859375 C-228.17016113 49.53378418 -227.71141602 49.00897461 -227.23876953 48.46826172 C-226.19120055 47.22662201 -225.22401279 45.91784096 -224.27734375 44.59765625 C-223.85582031 44.07042969 -223.43429688 43.54320312 -223 43 C-222.34 43 -221.68 43 -221 43 C-220.731875 42.360625 -220.46375 41.72125 -220.1875 41.0625 C-219 39 -219 39 -216 38 C-215.67 37.01 -215.34 36.02 -215 35 C-214.34 35 -213.68 35 -213 35 C-213 34.34 -213 33.68 -213 33 C-212.34 33 -211.68 33 -211 33 C-210.67 32.01 -210.34 31.02 -210 30 C-209.34 30 -208.68 30 -208 30 C-208 29.34 -208 28.68 -208 28 C-203.52941176 24 -203.52941176 24 -201 24 C-201 23.34 -201 22.68 -201 22 C-197.53846154 19 -197.53846154 19 -195 19 C-195 18.34 -195 17.68 -195 17 C-193.68 16.67 -192.36 16.34 -191 16 C-191 15.34 -191 14.68 -191 14 C-189.68 13.67 -188.36 13.34 -187 13 C-187 12.34 -187 11.68 -187 11 C-185.19889936 9.73345874 -183.32916625 8.56430481 -181.4375 7.4375 C-180.85685791 7.09033936 -180.27621582 6.74317871 -179.67797852 6.38549805 C-178.43131386 5.64028695 -177.1831261 4.8976192 -175.93359375 4.15722656 C-174.01470764 3.0088023 -172.11531481 1.83329967 -170.21875 0.6484375 C-163.61166526 -3.45259998 -157.12907907 -7.08365261 -149.84765625 -9.89453125 C-148.019203 -10.60434232 -146.21056264 -11.36888473 -144.43359375 -12.19921875 C-97.23762244 -33.97669023 -43.52701918 -25.25017004 0 0 Z " fill="#010101" transform="translate(412,299)"/>
<path d="M0 0 C1.88624671 3.21654702 2.29047742 5.71432261 2.4140625 9.421875 C2.45273437 10.44667969 2.49140625 11.47148438 2.53125 12.52734375 C2.57765625 14.12255859 2.57765625 14.12255859 2.625 15.75 C2.66367187 16.82894531 2.70234375 17.90789062 2.7421875 19.01953125 C2.83634631 21.67951775 2.92197387 24.3394994 3 27 C2.34 26.67 1.68 26.34 1 26 C-0.73954365 19.5504639 -1.28813027 13.56946436 0 7 C0.03703237 4.66696056 0.04760913 2.33284758 0 0 Z " fill="#717171" transform="translate(913,1227)"/>
<path d="M0 0 C-0.33 0.99 -0.66 1.98 -1 3 C-9.25 3 -17.5 3 -26 3 C-22.46748698 1.23374349 -21.23751075 0.73884996 -17.55859375 0.5859375 C-16.72779297 0.54726562 -15.89699219 0.50859375 -15.04101562 0.46875 C-13.75227539 0.42234375 -13.75227539 0.42234375 -12.4375 0.375 C-11.57447266 0.33632812 -10.71144531 0.29765625 -9.82226562 0.2578125 C-6.54453079 0.11519156 -3.28118081 0 0 0 Z " fill="#7F7F7F" transform="translate(252,1196)"/>
<path d="M0 0 C-3.14581646 2.09721098 -5.8408918 3.05667086 -9.4375 4.1875 C-10.57058594 4.55230469 -11.70367188 4.91710938 -12.87109375 5.29296875 C-15.8339997 5.96248932 -17.22004965 6.07236414 -20 5 C-13.37789203 1.30193971 -7.67097729 -0.23245386 0 0 Z " fill="#565656" transform="translate(805,1495)"/>
<path d="M0 0 C-4.66896439 2.54778513 -8.647063 4.37756547 -14 5 C-14.99 5.33 -15.98 5.66 -17 6 C-17.66 5.34 -18.32 4.68 -19 4 C-4.82872928 -1.46961326 -4.82872928 -1.46961326 0 0 Z " fill="#515151" transform="translate(415,754)"/>
<path d="M0 0 C1.134375 0.020625 2.26875 0.04125 3.4375 0.0625 C0.29168354 2.15971098 -2.4033918 3.11917086 -6 4.25 C-7.13308594 4.61480469 -8.26617188 4.97960938 -9.43359375 5.35546875 C-12.3964997 6.02498932 -13.78254965 6.13486414 -16.5625 5.0625 C-14.14362915 2.64362915 -12.82157651 2.56873037 -9.5 2 C-5.89158101 1.37357432 -3.55551291 0.06237742 0 0 Z " fill="#5F5F5F" transform="translate(1161.5625,1180.9375)"/>
<path d="M0 0 C2.70769771 0.67571779 5.43440635 1.12272117 8.19140625 1.546875 C8.19140625 1.876875 8.19140625 2.206875 8.19140625 2.546875 C1.09706392 2.64420592 -5.79053518 2.64774693 -12.80859375 1.546875 C-12.80859375 0.886875 -12.80859375 0.226875 -12.80859375 -0.453125 C-8.0643865 -1.6695884 -4.63312356 -1.16024076 0 0 Z " fill="#6F6F6F" transform="translate(216.80859375,1196.453125)"/>
<path d="M0 0 C-2.28874173 1.33858524 -4.58069656 2.67101014 -6.875 4 C-7.52597656 4.3815625 -8.17695312 4.763125 -8.84765625 5.15625 C-13.7734375 8 -13.7734375 8 -16 8 C-15.67 7.01 -15.34 6.02 -15 5 C-13.67696283 4.6278958 -12.34262065 4.29369827 -11 4 C-10.67 3.34 -10.34 2.68 -10 2 C-8.22265625 1.11328125 -8.22265625 1.11328125 -6.0625 0.3125 C-5.35222656 0.04050781 -4.64195312 -0.23148438 -3.91015625 -0.51171875 C-2 -1 -2 -1 0 0 Z " fill="#6D6D6D" transform="translate(826,1485)"/>
<path d="M0 0 C0.33 0.99 0.66 1.98 1 3 C-1.54631035 5.97069541 -4.42230149 7.4775751 -8 9 C-8.66 8.67 -9.32 8.34 -10 8 C-6.7 5.36 -3.4 2.72 0 0 Z " fill="#696969" transform="translate(175,888)"/>
<path d="M0 0 C0 0.99 0 1.98 0 3 C-1.94348501 4.73223664 -3.94720004 6.39881603 -6 8 C-6.66 8.66 -7.32 9.32 -8 10 C-8.66 10 -9.32 10 -10 10 C-10 9.01 -10 8.02 -10 7 C-8.68 6.67 -7.36 6.34 -6 6 C-6 5.34 -6 4.68 -6 4 C-5.34 4 -4.68 4 -4 4 C-4 3.34 -4 2.68 -4 2 C-2.68 1.34 -1.36 0.68 0 0 Z " fill="#393939" transform="translate(681,75)"/>
<path d="M0 0 C0.33 1.32 0.66 2.64 1 4 C-4.14285714 8.42857143 -4.14285714 8.42857143 -8 9 C-8 7 -8 7 -6.625 5.375 C-5 4 -5 4 -3 4 C-2.67 3.34 -2.34 2.68 -2 2 C-1.34 1.34 -0.68 0.68 0 0 Z " fill="#3B3B3B" transform="translate(1016,314)"/>
<path d="M0 0 C3.1662089 3.1662089 3.48067091 4.00089695 4.1875 8.1875 C4.34605469 9.08855469 4.50460937 9.98960938 4.66796875 10.91796875 C4.83232422 11.94857422 4.83232422 11.94857422 5 13 C4.34 13 3.68 13 3 13 C3 11.68 3 10.36 3 9 C2.34 9 1.68 9 1 9 C0.67 6.03 0.34 3.06 0 0 Z " fill="#636363" transform="translate(884,1032)"/>
<path d="M0 0 C0.66 0 1.32 0 2 0 C1.77169299 1.62818946 1.51656424 3.2526349 1.25 4.875 C1.11078125 5.77992188 0.9715625 6.68484375 0.828125 7.6171875 C0 10 0 10 -4 12 C-2.68 8.04 -1.36 4.08 0 0 Z " fill="#5E5E5E" transform="translate(945,954)"/>
<path d="M0 0 C-4.84060277 3.06242216 -8.29290936 4.53411505 -14 5 C-10.63156097 2.05261585 -4.40469071 -2.20234535 0 0 Z " fill="#4B4B4B" transform="translate(387,762)"/>
<path d="M0 0 C0.66 0 1.32 0 2 0 C4.24828052 4.49656104 4.16682272 8.07872966 4 13 C1.47519307 10.47519307 1.44261367 8.86176966 0.875 5.375 C0.70742188 4.37210938 0.53984375 3.36921875 0.3671875 2.3359375 C0.24601563 1.56507813 0.12484375 0.79421875 0 0 Z " fill="#525252" transform="translate(907,577)"/>
<path d="M0 0 C0 0.99 0 1.98 0 3 C-0.66 3 -1.32 3 -2 3 C-2 3.66 -2 4.32 -2 5 C-3.96466413 6.06775224 -5.96855359 7.06553465 -8 8 C-8.66 7.67 -9.32 7.34 -10 7 C-6.7 4.69 -3.4 2.38 0 0 Z " fill="#4A4A4A" transform="translate(1066,800)"/>
<path d="M0 0 C-0.33 0.66 -0.66 1.32 -1 2 C-3.16467461 2.62669199 -5.35864524 3.15427374 -7.5625 3.625 C-8.76003906 3.88539063 -9.95757812 4.14578125 -11.19140625 4.4140625 C-12.11824219 4.60742188 -13.04507812 4.80078125 -14 5 C-12.49587218 1.99174436 -10.13951699 1.69337029 -7.078125 0.59765625 C-4.64864679 -0.10104707 -2.51431136 -0.23571669 0 0 Z " fill="#787878" transform="translate(337,733)"/>
<path d="M0 0 C5.57142857 5.14285714 5.57142857 5.14285714 6 9 C5.01 8.67 4.02 8.34 3 8 C3 7.01 3 6.02 3 5 C1.68 4.67 0.36 4.34 -1 4 C-0.67 2.68 -0.34 1.36 0 0 Z " fill="#4A4A4A" transform="translate(1291,311)"/>
<path d="M0 0 C0.66 0.33 1.32 0.66 2 1 C0.37660195 2.70884005 -1.29319053 4.37446717 -3 6 C-3.66 6 -4.32 6 -5 6 C-5 6.66 -5 7.32 -5 8 C-5.99 8.33 -6.98 8.66 -8 9 C-7.34 7.68 -6.68 6.36 -6 5 C-5.34 5 -4.68 5 -4 5 C-4 4.34 -4 3.68 -4 3 C-2 1.375 -2 1.375 0 0 Z " fill="#474747" transform="translate(1030,302)"/>
<path d="M0 0 C0.66 0 1.32 0 2 0 C3.60725635 3.21451269 3.05748185 6.43612536 3 10 C0.64551835 7.44931155 0.01672076 6.28982642 -0.1875 2.75 C-0.125625 1.8425 -0.06375 0.935 0 0 Z " fill="#707070" transform="translate(890,1056)"/>
<path d="M0 0 C0.33 0.99 0.66 1.98 1 3 C0.34 3 -0.32 3 -1 3 C-1.2475 3.78375 -1.495 4.5675 -1.75 5.375 C-3.15389099 8.32317108 -4.00675737 8.9024777 -7 10 C-5.33248852 6.05860922 -2.77289351 3.2107188 0 0 Z " fill="#656565" transform="translate(109,950)"/>
<path d="M0 0 C-3.74525799 3.74525799 -7.98270909 3.68909949 -13 4 C-12 2 -12 2 -9.3125 0.875 C-6.0420565 0.01110926 -3.36293818 -0.16013991 0 0 Z " fill="#838383" transform="translate(1146,767)"/>
<path d="M0 0 C-0.33 0.66 -0.66 1.32 -1 2 C-3.28515625 2.6328125 -3.28515625 2.6328125 -6.0625 3.125 C-6.98160156 3.29257812 -7.90070313 3.46015625 -8.84765625 3.6328125 C-9.91306641 3.81457031 -9.91306641 3.81457031 -11 4 C-11 3.34 -11 2.68 -11 2 C-7.17010894 0.19769832 -4.21878192 -0.19622241 0 0 Z " fill="#5A5A5A" transform="translate(432,749)"/>
<path d="M0 0 C0.99 0.33 1.98 0.66 3 1 C1.75264433 1.6509259 0.50198168 2.29551669 -0.75 2.9375 C-1.44609375 3.29714844 -2.1421875 3.65679688 -2.859375 4.02734375 C-4.90224433 4.95558182 -6.81115376 5.53166578 -9 6 C-8.3125 4.0625 -8.3125 4.0625 -7 2 C-4.5 1.3125 -4.5 1.3125 -2 1 C-1.34 0.67 -0.68 0.34 0 0 Z " fill="#5A5A5A" transform="translate(1137,681)"/>
<path d="M0 0 C0.66 0 1.32 0 2 0 C3.2890625 1.75 3.2890625 1.75 4.625 4 C5.07101562 4.7425 5.51703125 5.485 5.9765625 6.25 C6.31429688 6.8275 6.65203125 7.405 7 8 C5.35 7.67 3.7 7.34 2 7 C2.33 6.01 2.66 5.02 3 4 C2.34 4 1.68 4 1 4 C0.67 2.68 0.34 1.36 0 0 Z " fill="#3C3C3C" transform="translate(1279,295)"/>
<path d="M0 0 C0.598125 0.20625 1.19625 0.4125 1.8125 0.625 C-1.1875 2.625 -1.1875 2.625 -3.375 2.25 C-3.973125 2.04375 -4.57125 1.8375 -5.1875 1.625 C-2.1875 -0.375 -2.1875 -0.375 0 0 Z M-9.1875 2.625 C-7.0625 3 -7.0625 3 -5.1875 3.625 C-6.1875 4.625 -6.1875 4.625 -8.75 4.6875 C-9.9565625 4.6565625 -9.9565625 4.6565625 -11.1875 4.625 C-10.5275 3.965 -9.8675 3.305 -9.1875 2.625 Z " fill="#5E5E5E" transform="translate(751.1875,39.375)"/>
<path d="M0 0 C3.96 0.99 3.96 0.99 8 2 C6 4 6 4 4.0546875 4.1953125 C2.03645833 4.13020833 0.01822917 4.06510417 -2 4 C-1.34 2.68 -0.68 1.36 0 0 Z " fill="#505050" transform="translate(763,1500)"/>
<path d="M0 0 C4.18199633 2.09099816 4.99659367 2.99318733 7 7 C7 7.66 7 8.32 7 9 C6.34 9 5.68 9 5 9 C3.35 6.03 1.7 3.06 0 0 Z " fill="#494949" transform="translate(612,1410)"/>
<path d="M0 0 C0.33 0.66 0.66 1.32 1 2 C-1.17508418 6.69360269 -1.17508418 6.69360269 -4.1875 7.8125 C-4.785625 7.874375 -5.38375 7.93625 -6 8 C-6 7.34 -6 6.68 -6 6 C-5.34 6 -4.68 6 -4 6 C-3.67 5.01 -3.34 4.02 -3 3 C-2.34 3 -1.68 3 -1 3 C-0.67 2.01 -0.34 1.02 0 0 Z " fill="#676767" transform="translate(116,942)"/>
<path d="M0 0 C-2.64 1.65 -5.28 3.3 -8 5 C-8.99 4.34 -9.98 3.68 -11 3 C-9.73581754 2.30034557 -8.46334598 1.61565237 -7.1875 0.9375 C-6.47980469 0.55464844 -5.77210937 0.17179688 -5.04296875 -0.22265625 C-3 -1 -3 -1 0 0 Z " fill="#696969" transform="translate(1102,783)"/>
<path d="M0 0 C0.33 0.99 0.66 1.98 1 3 C-0.25 4.5 -0.25 4.5 -2 6 C-3.32 6 -4.64 6 -6 6 C-6 5.34 -6 4.68 -6 4 C-4.68 3.67 -3.36 3.34 -2 3 C-2 2.34 -2 1.68 -2 1 C-1.34 0.67 -0.68 0.34 0 0 Z " fill="#3D3D3D" transform="translate(223,312)"/>
<path d="M0 0 C3.96 0 7.92 0 12 0 C12 0.66 12 1.32 12 2 C10.0625 2.5625 10.0625 2.5625 8 3 C7.67 2.67 7.34 2.34 7 2 C4.67182036 1.63239269 2.3381615 1.29758419 0 1 C0 0.67 0 0.34 0 0 Z " fill="#727272" transform="translate(521,741)"/>
<path d="M0 0 C0 0.66 0 1.32 0 2 C-4.15267176 5.11450382 -4.15267176 5.11450382 -7.3125 4.6875 C-7.869375 4.460625 -8.42625 4.23375 -9 4 C-3.375 0 -3.375 0 0 0 Z " fill="#4A4A4A" transform="translate(1078,273)"/>
<path d="M0 0 C0.33 0.99 0.66 1.98 1 3 C-4.625 5.125 -4.625 5.125 -8 4 C-5.36 2.68 -2.72 1.36 0 0 Z " fill="#4E4E4E" transform="translate(345,779)"/>
<path d="M0 0 C0.66 0.99 1.32 1.98 2 3 C1.34 3.66 0.68 4.32 0 5 C-0.6425235 7.06874034 -0.6425235 7.06874034 -1 9 C-1.66 9 -2.32 9 -3 9 C-2.69181644 7.68647977 -2.37832335 6.37420428 -2.0625 5.0625 C-1.88847656 4.33160156 -1.71445312 3.60070312 -1.53515625 2.84765625 C-1 1 -1 1 0 0 Z " fill="#5D5D5D" transform="translate(582,208)"/>
<path d="M0 0 C2.50298434 2.93828597 3.46930939 5.17902761 4 9 C3.34 9 2.68 9 2 9 C0.14223235 5.86501708 -0.20140476 3.62528568 0 0 Z " fill="#4F4F4F" transform="translate(921,122)"/>
</svg>
